<svg width="74" height="74" viewBox="0 0 74 74" fill="none" xmlns="http://www.w3.org/2000/svg">
<path d="M71.7716 13.323H29.7374C29.1285 13.323 28.6357 13.8158 28.6357 14.4247V24.7238H16.0112C15.7094 24.7238 15.4214 24.8472 15.2136 25.066L1.49256 39.4841C1.29718 39.689 1.18848 39.9608 1.18848 40.2436V52.9224C1.18848 53.5313 1.68132 54.0241 2.29021 54.0241H9.93553C10.3101 57.0443 12.8889 59.3918 16.0112 59.3918C19.1358 59.3918 21.7175 57.0451 22.0921 54.0241H29.7374H49.7545C50.1284 57.0443 52.702 59.3918 55.8177 59.3918C58.943 59.3918 61.5247 57.0451 61.9001 54.0241H71.7716C72.3805 54.0241 72.8734 53.5313 72.8734 52.9224V14.424C72.8734 13.8166 72.3798 13.323 71.7716 13.323ZM16.0105 57.1883C13.8467 57.1883 12.0869 55.4292 12.0869 53.2676C12.0869 51.1038 13.8467 49.3439 16.0105 49.3439C18.1773 49.3439 19.94 51.1038 19.94 53.2676C19.94 55.4299 18.1773 57.1883 16.0105 57.1883ZM16.0105 47.1404C13.1306 47.1404 10.7156 49.1397 10.0626 51.8214H3.39048V40.6843L16.4821 26.9272H28.6342V51.8214H21.9628C21.3106 49.1397 18.8927 47.1404 16.0105 47.1404ZM55.817 57.1883C53.6598 57.1883 51.9058 55.4292 51.9058 53.2676C51.9058 51.1038 53.6605 49.3439 55.817 49.3439C57.9845 49.3439 59.748 51.1038 59.748 53.2676C59.748 55.4299 57.9845 57.1883 55.817 57.1883ZM70.6699 51.8214H61.7715C61.1178 49.1397 58.6999 47.1404 55.817 47.1404C52.9437 47.1404 50.5331 49.1397 49.8816 51.8214H30.8384V15.5265H70.6692L70.6699 51.8214Z" fill="#F4F4F4"/>
<path d="M43.4011 32.9874H49.335V38.9221C49.335 39.531 49.8279 40.0239 50.4367 40.0239C51.0456 40.0239 51.5385 39.531 51.5385 38.9221V32.9874H57.4717C58.0806 32.9874 58.5734 32.4946 58.5734 31.8857C58.5734 31.2768 58.0806 30.784 57.4717 30.784H51.5385V24.8537C51.5385 24.2448 51.0456 23.752 50.4367 23.752C49.8279 23.752 49.335 24.2448 49.335 24.8537V30.784H43.4011C42.7922 30.784 42.2993 31.2768 42.2993 31.8857C42.2993 32.4946 42.7922 32.9874 43.4011 32.9874Z" fill="#F4F4F4"/>
</svg>
