<svg width="73" height="74" viewBox="0 0 73 74" fill="none" xmlns="http://www.w3.org/2000/svg">
<path d="M64.3457 57.8102V52.0569C64.3457 51.448 63.8595 50.9551 63.2589 50.9551H24.6554C20.966 44.7435 14.505 43.6336 11.9053 43.4434V38.548C11.9053 37.9391 11.4191 37.4462 10.8184 37.4462C10.2178 37.4462 9.73157 37.9391 9.73157 38.548V56.9391V57.8778V66.6264C9.73157 67.2353 10.2178 67.7281 10.8184 67.7281C11.4191 67.7281 11.9053 67.2353 11.9053 66.6264V58.9795H62.1793V66.6264C62.1793 67.2353 62.6654 67.7281 63.2661 67.7281C63.8668 67.7281 64.353 67.2353 64.353 66.6264V57.8778C64.3522 57.8543 64.3472 57.833 64.3457 57.8102ZM22.0347 50.9551H11.9053V45.6498C14.0275 45.8225 18.8524 46.6987 22.0347 50.9551ZM62.1727 53.1586V56.776H11.906V53.1586H11.9053" fill="#F4F4F4"/>
<path d="M37.5651 27.8404V21.8161H43.5159C44.1166 21.8161 44.6028 21.3232 44.6028 20.7143C44.6028 20.1054 44.1166 19.6126 43.5159 19.6126H37.5651V13.5867C37.5651 12.9778 37.0789 12.485 36.4782 12.485C35.8775 12.485 35.3914 12.9778 35.3914 13.5867V19.6126H29.4528C28.8522 19.6126 28.366 20.1054 28.366 20.7143C28.366 21.3232 28.8522 21.8161 29.4528 21.8161H35.3914V27.8404C35.3914 28.4493 35.8775 28.9422 36.4782 28.9422C37.0789 28.9422 37.5651 28.4493 37.5651 27.8404Z" fill="#F4F4F4"/>
<path d="M36.4782 44.8881C36.8274 44.8881 37.1549 44.7185 37.3593 44.4313C37.8744 43.7078 49.9776 26.6263 49.9776 19.401C49.9776 11.8577 43.9217 5.72101 36.4782 5.72101C29.0369 5.72101 22.9832 11.8577 22.9832 19.401C22.9832 26.6263 35.082 43.7078 35.5971 44.4313C35.8015 44.7185 36.129 44.8881 36.4782 44.8881ZM36.4782 7.92524C42.7232 7.92524 47.8039 13.0733 47.8039 19.4018C47.8039 24.3912 40.3061 36.318 36.4782 41.8818C32.6518 36.3188 25.1569 24.3934 25.1569 19.4018C25.1569 13.0733 30.2361 7.92524 36.4782 7.92524Z" fill="#F4F4F4"/>
</svg>
