<svg width="74" height="73" viewBox="0 0 74 73" fill="none" xmlns="http://www.w3.org/2000/svg">
<path d="M50.8548 18.9222C50.6488 18.7191 50.3694 18.6051 50.0782 18.6051C49.787 18.6051 49.5076 18.7191 49.3016 18.9222L43.8651 24.2851C42.6667 25.47 41.249 26.417 39.6889 27.075L27.9002 32.0549C26.7828 32.5367 25.7684 33.2234 24.9109 34.0787L6.98236 51.7288C6.86299 51.8511 6.77505 51.9998 6.72592 52.1625C6.26434 52.8852 6.12513 54.2079 7.29741 56.4413C8.44946 58.4817 9.89846 60.3446 11.5982 61.9705C14.3897 64.7242 17.8919 67.1022 20.2437 67.1022C20.5532 67.1154 20.8621 67.0665 21.1518 66.9584C21.4414 66.8504 21.7058 66.6853 21.9289 66.4734V66.4372L39.8574 48.7871C40.7028 47.9548 41.3836 46.9744 41.8649 45.896L47.0742 34.2811C47.7329 32.7976 48.6644 31.4473 49.8218 30.2986L55.3168 24.8778C55.5226 24.6745 55.6382 24.399 55.6382 24.1117C55.6382 23.8244 55.5226 23.5488 55.3168 23.3455L50.8548 18.9222ZM8.58691 53.3117C8.66594 53.2262 8.73029 53.1285 8.77741 53.0226L24.6251 37.389C24.7867 37.8356 24.9801 38.2703 25.2039 38.69C26.3559 40.7305 27.8049 42.5934 29.5047 44.2192C31.7028 46.3875 34.3257 48.3029 36.4871 49.0401L20.3683 64.9411C19.7968 65.1579 16.9101 64.1605 13.1441 60.4454C9.3782 56.7304 8.35978 53.7959 8.58691 53.3117ZM48.2831 28.7374C46.9267 30.074 45.8336 31.6474 45.0594 33.3776L39.8501 45.0215C39.5108 45.7749 39.0451 46.4664 38.4727 47.0669C38.4159 47.0957 38.3619 47.1295 38.3115 47.1681C37.7913 47.4139 34.8752 46.4453 31.058 42.6797C27.2408 38.914 26.259 36.0374 26.4861 35.5532C27.1425 34.9178 27.9126 34.4081 28.7574 34.0498L40.5388 29.0699C42.3642 28.305 44.0233 27.2008 45.4257 25.8174L50.0855 21.2206L53.0162 24.1117L48.2831 28.7374Z" fill="#F4F4F4"/>
<path d="M63.413 10.8416C63.2069 10.6386 62.9276 10.5245 62.6364 10.5245C62.3451 10.5245 62.0658 10.6386 61.8597 10.8416L56.416 16.2407C56.308 16.34 56.2214 16.4597 56.1613 16.5926C56.1012 16.7256 56.0689 16.8692 56.0663 17.0148C56.0637 17.1603 56.0909 17.3049 56.1461 17.4399C56.2014 17.5749 56.2837 17.6976 56.3881 17.8005C56.4924 17.9035 56.6167 17.9846 56.7536 18.0391C56.8904 18.0937 57.037 18.1205 57.1846 18.1179C57.3321 18.1153 57.4777 18.0835 57.6125 18.0242C57.7473 17.9649 57.8686 17.8795 57.9692 17.773L63.4057 12.41C63.5136 12.3093 63.5998 12.188 63.6589 12.0534C63.718 11.9189 63.7488 11.774 63.7495 11.6274C63.7502 11.4807 63.7207 11.3355 63.6629 11.2005C63.605 11.0654 63.52 10.9433 63.413 10.8416Z" fill="#F4F4F4"/>
<path d="M52.3861 15.1782C52.6776 15.1782 52.9571 15.064 53.1632 14.8607C53.3693 14.6573 53.4851 14.3816 53.4851 14.094V6.86632C53.4851 6.57879 53.3693 6.30303 53.1632 6.09971C52.9571 5.89639 52.6776 5.78217 52.3861 5.78217C52.0946 5.78217 51.8151 5.89639 51.609 6.09971C51.4029 6.30303 51.2871 6.57879 51.2871 6.86632V14.094C51.2871 14.3816 51.4029 14.6573 51.609 14.8607C51.8151 15.064 52.0946 15.1782 52.3861 15.1782Z" fill="#F4F4F4"/>
<path d="M67.7722 20.2377H60.4454C60.154 20.2377 59.8744 20.3519 59.6683 20.5552C59.4622 20.7585 59.3464 21.0343 59.3464 21.3218C59.3464 21.6094 59.4622 21.8851 59.6683 22.0884C59.8744 22.2918 60.154 22.406 60.4454 22.406H67.7722C68.0637 22.406 68.3432 22.2918 68.5493 22.0884C68.7554 21.8851 68.8712 21.6094 68.8712 21.3218C68.8712 21.0343 68.7554 20.7585 68.5493 20.5552C68.3432 20.3519 68.0637 20.2377 67.7722 20.2377Z" fill="#F4F4F4"/>
</svg>
