<svg width="73" height="73" viewBox="0 0 73 73" fill="none" xmlns="http://www.w3.org/2000/svg">
<path d="M65.335 29.565C65.335 29.2746 65.2197 28.996 65.0143 28.7907C64.809 28.5853 64.5305 28.47 64.24 28.47H59.2249L60.2031 23.1921C60.232 23.0345 60.2259 22.8726 60.1853 22.7177C60.1448 22.5627 60.0707 22.4186 59.9684 22.2954C59.8661 22.1722 59.738 22.0729 59.5931 22.0046C59.4483 21.9363 59.2902 21.9006 59.13 21.9H36.0693C36.112 21.783 36.1342 21.6595 36.135 21.535C36.135 19.1149 35.1737 16.7939 33.4624 15.0826C31.7511 13.3714 29.4301 12.41 27.01 12.41C24.5899 12.41 22.269 13.3714 20.5577 15.0826C18.8464 16.7939 17.885 19.1149 17.885 21.535C17.8859 21.6595 17.9081 21.783 17.9507 21.9H13.87C13.71 21.8997 13.5519 21.9345 13.4067 22.0019C13.2616 22.0693 13.133 22.1677 13.03 22.2902C12.927 22.4127 12.8521 22.5563 12.8106 22.7108C12.769 22.8654 12.7619 23.0272 12.7896 23.1848L13.7167 28.47H8.76004C8.46963 28.47 8.19111 28.5853 7.98576 28.7907C7.7804 28.996 7.66504 29.2746 7.66504 29.565C7.67992 33.6042 8.57675 37.5915 10.2928 41.2481C12.0089 44.9047 14.5029 48.1424 17.6003 50.735L20.6809 68.4156C20.7194 68.6748 20.8496 68.9117 21.0478 69.0832C21.2461 69.2547 21.4992 69.3493 21.7613 69.35H50.7131C50.9687 69.349 51.2158 69.2588 51.4118 69.0948C51.6078 68.9308 51.7402 68.7034 51.7862 68.4521L55.0201 51.1C58.2345 48.505 60.8287 45.2249 62.6133 41.4991C64.3978 37.7734 65.3277 33.6961 65.335 29.565ZM20.075 21.535C20.075 19.6957 20.8057 17.9318 22.1063 16.6312C23.4068 15.3306 25.1708 14.6 27.01 14.6C28.8493 14.6 30.6133 15.3306 31.9138 16.6312C33.2144 17.9318 33.945 19.6957 33.945 21.535C33.9459 21.6595 33.9681 21.783 34.0107 21.9H20.0093C20.052 21.783 20.0742 21.6595 20.075 21.535ZM57.816 24.09L53.0126 49.8882C48.209 53.5641 42.3159 55.5316 36.2674 55.4787C30.2189 55.4258 24.361 53.3556 19.6224 49.5962L15.1694 24.09H57.816ZM9.87694 30.66H14.0963L16.9798 47.1726C12.6835 42.7149 10.1584 36.8447 9.87694 30.66ZM49.8006 67.16H22.6884L20.1626 52.706C24.9291 55.8955 30.525 57.62 36.26 57.6667C41.995 57.7134 47.6182 56.0802 52.4359 52.9688L49.8006 67.16ZM55.6771 47.5303L58.8161 30.66H63.1231C62.8341 37.0157 60.178 43.0335 55.6771 47.5303Z" fill="#F4F4F4"/>
<path d="M42.34 14.235C43.5672 14.235 44.7669 13.8711 45.7873 13.1893C46.8077 12.5075 47.603 11.5384 48.0727 10.4046C48.5423 9.27075 48.6652 8.02313 48.4258 6.81948C48.1864 5.61583 47.5954 4.5102 46.7276 3.64242C45.8598 2.77463 44.7542 2.18366 43.5505 1.94424C42.3469 1.70482 41.0993 1.8277 39.9655 2.29734C38.8316 2.76698 37.8626 3.56229 37.1807 4.5827C36.4989 5.60311 36.135 6.80278 36.135 8.03001C36.1369 9.67509 36.7913 11.2522 37.9545 12.4155C39.1178 13.5787 40.6949 14.2331 42.34 14.235ZM42.34 4.01502C43.1341 4.01502 43.9104 4.25049 44.5706 4.69166C45.2309 5.13284 45.7455 5.7599 46.0494 6.49354C46.3533 7.22719 46.4328 8.03447 46.2779 8.8133C46.1229 9.59214 45.7406 10.3075 45.179 10.869C44.6175 11.4306 43.9021 11.8129 43.1233 11.9679C42.3445 12.1228 41.5372 12.0433 40.8035 11.7394C40.0699 11.4355 39.4428 10.9209 39.0017 10.2606C38.5605 9.60037 38.325 8.82411 38.325 8.03001C38.3269 6.96576 38.7506 5.94565 39.5031 5.19311C40.2556 4.44057 41.2758 4.01694 42.34 4.01502Z" fill="#F4F4F4"/>
<path d="M54.0199 19.345C54.814 19.345 55.5902 19.1095 56.2505 18.6684C56.9108 18.2272 57.4254 17.6001 57.7293 16.8665C58.0331 16.1328 58.1127 15.3256 57.9577 14.5467C57.8028 13.7679 57.4204 13.0525 56.8589 12.491C56.2974 11.9295 55.582 11.5471 54.8032 11.3922C54.0243 11.2372 53.2171 11.3167 52.4834 11.6206C51.7498 11.9245 51.1227 12.4391 50.6815 13.0994C50.2404 13.7597 50.0049 14.5359 50.0049 15.33C50.0068 16.3943 50.4304 17.4144 51.183 18.1669C51.9355 18.9194 52.9556 19.3431 54.0199 19.345ZM54.0199 13.505C54.3808 13.505 54.7337 13.612 55.0338 13.8126C55.3339 14.0131 55.5678 14.2981 55.706 14.6316C55.8441 14.9651 55.8802 15.332 55.8098 15.686C55.7394 16.0401 55.5656 16.3652 55.3104 16.6205C55.0551 16.8757 54.7299 17.0495 54.3759 17.1199C54.0219 17.1904 53.655 17.1542 53.3215 17.0161C52.988 16.878 52.703 16.644 52.5024 16.3439C52.3019 16.0438 52.1949 15.691 52.1949 15.33C52.1949 14.846 52.3872 14.3818 52.7294 14.0395C53.0717 13.6973 53.5359 13.505 54.0199 13.505Z" fill="#F4F4F4"/>
<path d="M29.565 42.029H35.4626V47.9274C35.4626 48.5326 35.9525 49.0224 36.5576 49.0224C37.1628 49.0224 37.6526 48.5326 37.6526 47.9274V42.029H43.5496C44.1548 42.029 44.6446 41.5392 44.6446 40.934C44.6446 40.3288 44.1548 39.839 43.5496 39.839H37.6526V33.945C37.6526 33.3398 37.1628 32.85 36.5576 32.85C35.9525 32.85 35.4626 33.3398 35.4626 33.945V39.839H29.565C28.9598 39.839 28.47 40.3288 28.47 40.934C28.47 41.5392 28.9598 42.029 29.565 42.029Z" fill="#F4F4F4"/>
</svg>
