<svg width="73" height="74" viewBox="0 0 73 74" fill="none" xmlns="http://www.w3.org/2000/svg">
<path d="M30.0832 35.4124V23.3975H34.6161C35.2167 23.3975 35.7029 22.9046 35.7029 22.2957C35.7029 21.6868 35.2167 21.194 34.6161 21.194H28.9963H17.7561H12.135C11.5343 21.194 11.0481 21.6868 11.0481 22.2957C11.0481 22.9046 11.5343 23.3975 12.135 23.3975H16.6693V35.4124L11.1351 48.2221C11.1343 48.2235 11.1336 48.2257 11.1329 48.2272L6.74999 58.3728C6.68985 58.5116 6.65869 58.6629 6.65869 58.815C6.65869 63.2279 9.82142 66.8181 13.7087 66.8181H33.0416C36.9303 66.8181 40.0945 63.2279 40.0945 58.815C40.0945 58.6629 40.0634 58.5124 40.0032 58.3728L30.0832 35.4124ZM18.7517 36.0845C18.8118 35.9456 18.843 35.7943 18.843 35.6423V23.3967H27.9095V35.6423C27.9095 35.7943 27.9406 35.9449 28.0008 36.0845L32.9546 47.5515H13.7971L18.7517 36.0845ZM33.0416 64.6131H13.7087C11.0822 64.6131 8.93455 62.1313 8.83601 59.0361L12.8458 49.7542H33.9074L37.9172 59.0361C37.8179 62.1313 35.6689 64.6131 33.0416 64.6131Z" fill="#F4F4F4"/>
<path d="M65.2645 6.63251H47.4706C46.87 6.63251 46.3838 7.12536 46.3838 7.73426C46.3838 8.34315 46.87 8.836 47.4706 8.836H49.4248V58.9398C49.4248 63.2829 52.5397 66.8166 56.3683 66.8166C60.1962 66.8166 63.3111 63.2829 63.3111 58.9398V8.836H65.2653C65.8659 8.836 66.3521 8.34315 66.3521 7.73426C66.3521 7.12536 65.8645 6.63251 65.2645 6.63251ZM61.1367 58.9406C61.1367 62.0688 58.997 64.6138 56.3676 64.6138C53.7381 64.6138 51.5978 62.0688 51.5978 58.9406V41.8951H56.114C56.7147 41.8951 57.2008 41.4022 57.2008 40.7933C57.2008 40.1844 56.7147 39.6916 56.114 39.6916H51.5978V33.7025H56.114C56.7147 33.7025 57.2008 33.2096 57.2008 32.6007C57.2008 31.9918 56.7147 31.499 56.114 31.499H51.5978V25.5106H56.114C56.7147 25.5106 57.2008 25.0177 57.2008 24.4088C57.2008 23.7999 56.7147 23.3071 56.114 23.3071H51.5978V17.3209H56.114C56.7147 17.3209 57.2008 16.8281 57.2008 16.2192C57.2008 15.6103 56.7147 15.1174 56.114 15.1174H51.5978V8.836H61.136L61.1367 58.9406Z" fill="#F4F4F4"/>
</svg>
