<svg width="74" height="74" viewBox="0 0 74 74" fill="none" xmlns="http://www.w3.org/2000/svg">
<path d="M36.7245 44.6571C24.2322 44.6571 14.0691 54.8203 14.0691 67.3125C14.0691 67.9214 14.5619 68.4142 15.1708 68.4142H58.2781C58.887 68.4142 59.3799 67.9214 59.3799 67.3125C59.3799 54.8203 49.2167 44.6571 36.7245 44.6571ZM16.3019 66.2107C16.8763 55.4438 25.8173 46.8606 36.7245 46.8606C47.6317 46.8606 56.5726 55.4438 57.147 66.2107H16.3019Z" fill="#F4F4F4"/>
<path d="M36.3507 42.6424C43.5766 42.6424 49.4562 36.7613 49.4562 29.5317C49.4562 26.9779 48.7195 24.5144 47.3335 22.3881V6.13671C47.3335 5.52782 46.8407 5.03497 46.2318 5.03497H26.471C25.8621 5.03497 25.3693 5.52782 25.3693 6.13671V22.3807C23.9796 24.5115 23.2429 26.9801 23.2429 29.5317C23.2422 36.7613 29.1225 42.6424 36.3507 42.6424ZM27.572 7.23918H45.1293V21.8901H27.572V7.23918ZM26.9036 24.0928H45.8014C46.7525 25.7418 47.2527 27.6066 47.2527 29.5317C47.252 35.5465 42.3617 40.4389 36.3507 40.4389C30.3381 40.4389 25.4464 35.5457 25.4464 29.5317C25.4464 27.6096 25.9503 25.744 26.9036 24.0928Z" fill="#F4F4F4"/>
<path d="M40.1898 13.5844H37.4523V10.8426C37.4523 10.2337 36.9595 9.74084 36.3506 9.74084C35.7417 9.74084 35.2489 10.2337 35.2489 10.8426V13.5844H32.5107C31.9018 13.5844 31.4089 14.0773 31.4089 14.6862C31.4089 15.2951 31.9018 15.7879 32.5107 15.7879H35.2489V18.5261C35.2489 19.135 35.7417 19.6278 36.3506 19.6278C36.9595 19.6278 37.4523 19.135 37.4523 18.5261V15.7879H40.1898C40.7987 15.7879 41.2915 15.2951 41.2915 14.6862C41.2915 14.0773 40.7979 13.5844 40.1898 13.5844Z" fill="#F4F4F4"/>
</svg>
