<svg width="45" height="69" viewBox="0 0 45 69" fill="none" xmlns="http://www.w3.org/2000/svg">
<path d="M38.3574 17.8721C38.1271 17.4552 37.6667 17.2288 37.1935 17.3083C36.7256 17.3878 36.359 17.7559 36.2778 18.226C35.8173 20.9152 34.374 27.5262 32.4211 31.511C32.2475 30.3219 32.0992 29.0639 31.9539 27.8291C31.7416 26.017 31.5404 24.3047 31.2669 22.866C29.0234 10.1327 23.6862 0.938154 23.4604 0.552797C23.2153 0.135953 22.7325 -0.076218 22.2631 0.0249943C21.7929 0.126956 21.4397 0.520559 21.3876 1.00188C19.875 14.8979 15.7769 28.2692 13.3397 33.7766C11.9619 23.8429 15.4736 11.2715 15.5131 11.1336C15.6584 10.6215 15.4274 10.078 14.9595 9.82983C14.4923 9.58243 13.9156 9.69638 13.5781 10.1065C13.4395 10.2752 10.1446 14.2922 6.80357 20.2704C2.28897 28.3479 0 35.7717 0 42.3355C0 48.3677 1.30394 53.9809 3.49083 57.3681C7.25138 64.5437 14.5758 69 22.6185 69C30.8459 69 38.4706 64.1763 42.0658 56.7053C43.9039 53.9524 45 49.3566 45 44.3829C44.9993 30.106 38.6286 18.3654 38.3574 17.8721ZM40.1724 55.5065C40.1397 55.5538 40.1114 55.604 40.0868 55.6557C36.8761 62.3957 30.0196 66.7508 22.6185 66.7508C15.3917 66.7508 8.81164 62.7368 5.44524 56.2758C5.42811 56.2435 5.41022 56.2113 5.3901 56.1813C3.41482 53.1502 2.23532 47.9748 2.23532 42.3355C2.23532 32.269 8.24833 21.6874 12.1154 15.9236C11.0365 21.4962 9.91737 30.3099 11.7511 37.2516C11.8561 37.649 12.1683 37.9563 12.5655 38.0546C12.9626 38.1543 13.3814 38.0238 13.6563 37.7202C15.8753 35.2738 20.9621 20.5891 23.1594 4.86294C24.9164 8.5763 27.6569 15.2541 29.0704 23.2731C29.3319 24.6481 29.5278 26.3214 29.7365 28.093C30.0077 30.4052 30.2886 32.796 30.7454 34.7685C30.84 35.1771 31.1529 35.4988 31.5568 35.6022C31.9629 35.7049 32.3883 35.5752 32.667 35.2626C35.1489 32.4714 36.9163 25.9398 37.8127 21.9311C39.6874 26.251 42.7647 34.8038 42.7647 44.3822C42.7639 48.8955 41.7707 53.1584 40.1724 55.5065Z" fill="#F4F4F4"/>
</svg>
