<svg width="73" height="72" viewBox="0 0 73 72" fill="none" xmlns="http://www.w3.org/2000/svg">
<path d="M20.8186 60.5145L9.69205 60.4362L12.3616 46.6115C12.3681 46.5777 12.3674 46.544 12.3703 46.5102C12.3732 46.4793 12.3805 46.4499 12.3805 46.4183V46.3953C12.3805 46.3946 12.3805 46.3946 12.3805 46.3939L12.3834 46.0592C12.3892 45.3647 12.4846 44.6651 12.5844 43.9247C12.8305 42.1141 13.0854 40.2417 12.0149 38.3801L9.81657 34.5593C9.71535 34.0817 9.66584 33.5947 9.66948 33.1114L9.79618 18.7107C9.79909 18.3745 10.2367 18.0047 10.8608 18.0047C10.8651 18.0047 10.8695 18.0047 10.8739 18.0047L11.5205 18.0111C11.8365 18.014 12.1373 18.116 12.3448 18.2905C12.4351 18.3666 12.5858 18.5246 12.5844 18.7315V18.7336C12.5844 18.7358 12.5851 18.7387 12.5851 18.7408L12.5232 25.8381C12.5181 26.4328 13.0031 26.919 13.606 26.9248C13.6089 26.9248 13.6126 26.9248 13.6155 26.9248C14.214 26.9248 14.7027 26.4486 14.7078 25.8568L14.7696 18.7538C14.7696 18.7516 14.7689 18.7494 14.7689 18.7466L14.8425 10.5203C14.8439 10.312 14.9983 10.1561 15.09 10.0814C15.3012 9.90978 15.6245 9.81283 15.9209 9.8157L16.5639 9.82144C16.8814 9.82432 17.1828 9.9263 17.3904 10.1015C17.4807 10.1777 17.6307 10.3357 17.6307 10.5432L17.5193 22.5423C17.5134 23.137 17.9984 23.6239 18.6013 23.6296C18.605 23.6296 18.6079 23.6296 18.6115 23.6296C19.2101 23.6296 19.698 23.1535 19.7038 22.5624L19.8152 10.5691C19.8152 10.5684 19.8152 10.5677 19.8152 10.5662C19.8152 10.5655 19.8152 10.5641 19.8152 10.5633L19.8531 6.44804C19.8545 6.23976 20.0089 6.08391 20.0999 6.00921C20.3111 5.83756 20.5791 5.72983 20.9344 5.74348L21.5716 5.74779C22.2044 5.75425 22.6427 6.13634 22.6398 6.47389L22.6121 9.71084C22.6121 9.71443 22.6107 9.71802 22.6107 9.72161L22.492 22.5847C22.4862 23.18 22.9711 23.6663 23.5741 23.672C23.5777 23.672 23.5813 23.672 23.5843 23.672C24.1828 23.672 24.6707 23.1959 24.6765 22.6048L24.7872 10.6258C24.7872 10.6201 24.7887 10.6151 24.7887 10.61V10.6093C24.7901 10.4384 24.8935 10.3034 24.9795 10.22C25.187 10.0189 25.5074 9.90619 25.87 9.90547L26.5094 9.90978C26.8268 9.91266 27.1276 10.0146 27.3351 10.1899C27.4261 10.266 27.5776 10.4255 27.5754 10.6359L27.4706 22.5085V22.5092L27.4356 25.6162C27.429 26.2116 27.9126 26.6985 28.5155 26.7057C28.5199 26.7057 28.5242 26.7057 28.5279 26.7057C29.1257 26.7057 29.6136 26.231 29.6201 25.6406L29.642 23.6928C29.642 23.6828 29.6449 23.6742 29.6449 23.6641L29.6631 21.5727L32.1557 21.5907C32.5197 21.5928 32.8256 21.9052 32.8227 22.2708L32.7979 25.7735C32.7935 26.3689 33.2792 26.8544 33.8822 26.8587C33.8851 26.8587 33.888 26.8587 33.8902 26.8587C34.4895 26.8587 34.9781 26.3811 34.9825 25.7893L35.0072 22.2866C35.0189 20.7267 33.7467 19.4475 32.171 19.436L29.682 19.4181L29.7599 10.6553C29.7672 9.86382 29.401 9.09749 28.7551 8.55238C28.1543 8.04532 27.3635 7.76235 26.5254 7.75589L25.8889 7.75158C25.5387 7.75445 25.1564 7.79898 24.812 7.90097L24.8243 6.494C24.8375 4.91395 23.3869 3.61328 21.5898 3.59533L20.9512 3.59102C20.1232 3.5824 19.32 3.85316 18.7113 4.34944C18.0559 4.88235 17.6758 5.64221 17.6693 6.43224L17.6561 7.83705C17.3161 7.73003 16.9542 7.67258 16.5835 7.6697L15.9406 7.66396C15.1301 7.66108 14.3116 7.9261 13.7021 8.42166C13.0453 8.95529 12.6652 9.71515 12.6587 10.5052L12.6099 16.026C12.2705 15.9197 11.9101 15.8623 11.5416 15.8594L10.895 15.8529C9.08693 15.8271 7.62839 17.1127 7.6131 18.6949L7.48639 33.0985C7.4813 33.8023 7.5614 34.5083 7.72305 35.1963C7.74635 35.2976 7.78495 35.3946 7.83665 35.485L10.1159 39.4467C10.8236 40.6777 10.6365 42.0516 10.421 43.6424C10.3154 44.4159 10.2069 45.216 10.1996 46.0455L10.1974 46.3084L7.30071 61.3074C7.24027 61.6219 7.32401 61.9459 7.52936 62.1929C7.7347 62.44 8.04127 62.5836 8.36531 62.5865L20.8026 62.6748C20.8055 62.6748 20.8077 62.6748 20.8106 62.6748C21.4099 62.6748 21.8985 62.1972 21.9029 61.6054C21.9073 61.0043 21.4216 60.5188 20.8186 60.5145Z" fill="#F4F4F4"/>
<path d="M67.4177 25.5249L66.9641 25.0739C66.7005 24.811 66.4012 24.5927 66.0808 24.4261L67.0871 23.4271C68.2136 22.3117 68.1022 20.3797 66.8395 19.1229L66.3852 18.6675C65.7254 18.0125 64.8465 17.6362 63.9741 17.6362C63.9734 17.6362 63.9727 17.6362 63.972 17.6362C63.2234 17.6362 62.5331 17.9112 62.0285 18.4111L61.0352 19.3958C60.8721 19.0884 60.658 18.7968 60.3937 18.5346L59.94 18.0807C59.281 17.4243 58.4021 17.048 57.5283 17.0472C57.5283 17.0472 57.5276 17.0472 57.5268 17.0472C56.7775 17.0472 56.0865 17.323 55.5826 17.8236L48.2506 25.0911C48.0875 24.7816 47.8734 24.4878 47.6083 24.2228L47.1554 23.7747C46.4971 23.1189 45.6189 22.7419 44.7451 22.7412C44.7444 22.7412 44.7429 22.7412 44.7422 22.7412C43.9929 22.7412 43.3026 23.0162 42.7987 23.5168L36.0841 30.1731C35.4717 30.7808 34.9518 31.4738 34.5397 32.233C34.4916 32.322 34.4559 32.4168 34.4341 32.5159L33.545 36.6018C33.1853 38.2616 31.9444 39.2915 30.5077 40.4851C29.9754 40.9275 29.4279 41.3886 28.905 41.8964L15.8699 50.1558C15.5924 50.3317 15.4104 50.6204 15.374 50.9436C15.3376 51.2661 15.4512 51.5879 15.6827 51.8191L33.2231 69.3419C33.4292 69.548 33.7096 69.6622 34.0001 69.6622C34.0321 69.6622 34.0642 69.6608 34.0962 69.6579C34.421 69.6292 34.7159 69.4597 34.9001 69.1954L43.6485 56.6469L43.8363 56.4616C44.4269 55.8763 44.9264 55.2385 45.4092 54.6216C46.4025 53.3539 47.2602 52.2587 48.6351 51.9003L53.0791 50.744C53.1825 50.7174 53.2801 50.6757 53.3711 50.6212C53.9813 50.252 54.545 49.8132 55.0489 49.3169L65.3133 39.1442C66.4369 38.0282 66.3247 36.0969 65.062 34.8379L64.6062 34.3847C64.3433 34.1226 64.0448 33.9057 63.7258 33.739L67.666 29.8334C68.7932 28.7173 68.6818 26.7854 67.4177 25.5249ZM66.1186 28.3123L60.2575 34.1226C60.2553 34.1247 60.2532 34.1247 60.251 34.1269L55.1887 39.1435C54.7634 39.5651 54.7649 40.2474 55.1923 40.6668C55.4057 40.8766 55.6846 40.9807 55.9634 40.9807C56.2438 40.9807 56.5249 40.8751 56.7375 40.6632L61.7954 35.6509C61.7976 35.6487 61.7998 35.6487 61.802 35.6466L61.8042 35.6444C61.9192 35.5302 62.0802 35.5065 62.1945 35.5065C62.1952 35.5065 62.1952 35.5065 62.1952 35.5065C62.4857 35.5065 62.8069 35.6545 63.0552 35.9008L63.5103 36.3533C63.961 36.8029 64.0062 37.3839 63.7644 37.6238L53.5022 47.7943C53.1578 48.134 52.7747 48.4385 52.3611 48.7014L48.078 49.816C45.9867 50.3619 44.7619 51.9247 43.682 53.3029C43.2196 53.8926 42.7834 54.4499 42.2904 54.9383L42.0326 55.1925C42.029 55.1961 42.0275 55.2011 42.0239 55.2055C41.9817 55.2485 41.9409 55.2924 41.9052 55.3433L33.8501 66.8985L18.1848 51.2481L30.1655 43.6567C30.2325 43.6143 30.2922 43.5648 30.3468 43.5116C30.3475 43.5109 30.349 43.5102 30.3497 43.5095C30.8347 43.0283 31.3845 42.5722 31.9153 42.1305C33.5129 40.8033 35.1652 39.4315 35.6815 37.0514L36.5371 33.1199C36.8364 32.5957 37.2048 32.1152 37.633 31.6907L44.3475 25.0344C44.4648 24.918 44.6264 24.8943 44.7422 24.8943H44.7429C45.0327 24.8943 45.3546 25.0423 45.6058 25.2922L46.058 25.7397C46.5088 26.19 46.5532 26.7717 46.3114 27.0116C46.3114 27.0116 46.3107 27.0123 46.3107 27.013L41.7224 31.56C41.2972 31.9816 41.2986 32.6639 41.7268 33.084C41.9394 33.293 42.2183 33.3979 42.4972 33.3979C42.7776 33.3979 43.0587 33.2923 43.2713 33.0804L48.6685 27.7313C48.6685 27.7313 48.6693 27.7305 48.6693 27.7298L57.1322 19.3419C57.2487 19.2256 57.4118 19.2011 57.5268 19.2011H57.5276C57.8181 19.2011 58.14 19.3491 58.3868 19.594L58.8419 20.0501C59.2934 20.4975 59.3371 21.0771 59.0946 21.3177V21.3184C59.0939 21.3191 59.0939 21.3206 59.0924 21.3213L48.1683 32.1489C47.743 32.5705 47.7445 33.2528 48.1727 33.673C48.3853 33.882 48.6642 33.9868 48.9431 33.9868C49.2234 33.9868 49.5045 33.8812 49.7171 33.6694L61.2624 22.2255C61.2639 22.2241 61.2639 22.2219 61.2653 22.2205L63.5758 19.9316C63.6931 19.8152 63.8562 19.7908 63.972 19.7908H63.9727C64.2632 19.7908 64.5858 19.9387 64.8319 20.1829L65.2849 20.6368C65.7363 21.0864 65.7815 21.6675 65.539 21.9073L63.2278 24.2006C63.2278 24.2006 63.227 24.2006 63.227 24.2013L51.6796 35.6473C51.2543 36.0689 51.2558 36.7512 51.6839 37.1713C51.8966 37.3803 52.1755 37.4852 52.4544 37.4852C52.7347 37.4852 53.0158 37.3796 53.2284 37.1677L64.1555 26.3365L64.1576 26.3351C64.2742 26.2201 64.4358 26.1957 64.5509 26.1957C64.5509 26.1957 64.5509 26.1957 64.5516 26.1957C64.8414 26.1957 65.164 26.3437 65.413 26.5915L65.866 27.0418C66.3167 27.4914 66.3611 28.0724 66.1186 28.3123Z" fill="#F4F4F4"/>
</svg>
