<svg width="100" height="100" viewBox="0 0 100 100" fill="none" xmlns="http://www.w3.org/2000/svg">
<path d="M100 50C100 77.6142 77.6142 100 50 100C22.3858 100 0 77.6142 0 50C0 22.3858 22.3858 0 50 0C77.6142 0 100 22.3858 100 50Z" fill="#971B1B"/>
<g clip-path="url(#clip0)">
<path d="M75.4034 53.8489C77.9338 51.3301 79.3267 47.9266 79.3267 44.2653C79.3267 36.4105 72.5969 30.02 64.3244 30.02C58.5417 30.02 53.3695 33.1744 50.8841 37.9593C48.3788 33.2261 43.2257 30.1073 37.491 30.1073C29.2185 30.1073 22.4888 36.4978 22.4888 44.3527C22.4888 48.0009 23.8595 51.3811 26.3486 53.87C32.0656 59.5862 49.9695 76.1611 50.1504 76.3278C50.363 76.5244 50.6353 76.6235 50.9077 76.6235C51.1816 76.6235 51.4547 76.5237 51.668 76.3256C51.8467 76.1581 69.6783 59.5447 75.4034 53.8489ZM50.9055 74.0297C47.4192 70.798 32.9381 57.3478 27.9253 52.3358C25.8474 50.2583 24.7032 47.4234 24.7032 44.3527C24.7032 37.7023 30.4394 32.2919 37.491 32.2919C43.2619 32.2919 48.336 35.9685 49.8293 41.2317C49.9629 41.7036 50.3991 42.0298 50.8952 42.0298C50.8967 42.0298 50.8974 42.0298 50.8989 42.0298C51.3971 42.0284 51.8326 41.6985 51.9633 41.2245C53.4293 35.9138 58.5122 32.2045 64.3244 32.2045C71.376 32.2045 77.1122 37.6149 77.1122 44.2653C77.1122 47.347 75.9467 50.2044 73.8304 52.3103C68.8065 57.3092 54.3793 70.7886 50.9055 74.0297Z" fill="#F4F4F4"/>
<path d="M22.2363 55.8026C19.7812 53.2627 18.4289 49.7959 18.4289 46.0399C18.4289 45.4362 17.9336 44.9476 17.3217 44.9476C16.7098 44.9476 16.2145 45.4362 16.2145 46.0399C16.2145 50.3595 17.7838 54.3623 20.6338 57.3107C21.8916 58.6127 23.7422 60.4702 26.1345 62.8324C26.3508 63.0458 26.6343 63.1521 26.9177 63.1521C27.2012 63.1521 27.4839 63.0458 27.7002 62.8332C28.1327 62.4065 28.1327 61.7154 27.7009 61.288C25.3211 58.9381 23.4823 57.0929 22.2363 55.8026Z" fill="#F4F4F4"/>
<path d="M82.8152 34.1233C82.4623 33.6303 81.7714 33.5131 81.2717 33.8611C80.772 34.2092 80.6531 34.8908 81.006 35.3837C82.8056 37.8974 83.7563 40.8728 83.7563 43.9872C83.7563 46.4754 83.1606 48.8966 82.0342 50.9901C81.7478 51.5224 81.953 52.1843 82.4933 52.4668C82.6579 52.5528 82.8358 52.5935 83.0108 52.5935C83.4072 52.5935 83.791 52.3831 83.9896 52.0132C85.285 49.6058 85.97 46.83 85.97 43.9865C85.97 40.4184 84.8783 37.0076 82.8152 34.1233Z" fill="#F4F4F4"/>
<path d="M77.4318 57.6536C74.6896 60.4083 70.7191 64.3245 65.6324 69.2936C65.1977 69.7174 65.1947 70.4092 65.6251 70.8381C65.8413 71.0536 66.1263 71.1614 66.4112 71.1614C66.6932 71.1614 66.9744 71.0558 67.1907 70.8446C72.2847 65.869 76.2619 61.9448 79.0122 59.1828C79.4404 58.7525 79.4345 58.0614 78.9975 57.6383C78.5612 57.2175 77.8607 57.2233 77.4318 57.6536Z" fill="#F4F4F4"/>
<path d="M32.854 38.3365C32.4148 37.9178 31.7135 37.9294 31.2884 38.3634C27.9312 41.7931 27.9312 47.3739 31.2884 50.8036C31.5054 51.0257 31.7947 51.1371 32.0848 51.1371C32.3616 51.1371 32.6392 51.0352 32.854 50.8306C33.2939 50.4111 33.3057 49.7201 32.8813 49.2861C30.3428 46.6931 30.3428 42.474 32.8813 39.881C33.3057 39.447 33.2939 38.7559 32.854 38.3365Z" fill="#F4F4F4"/>
</g>
<defs>
<clipPath id="clip0">
<rect x="14" y="14" width="74" height="73" fill="white"/>
</clipPath>
</defs>
</svg>
