<svg width="74" height="73" viewBox="0 0 74 73" fill="none" xmlns="http://www.w3.org/2000/svg">
<path d="M67.856 60.2361L53.6318 44.8513C53.6957 44.7898 53.7648 44.7311 53.8206 44.663C54.2907 44.0862 54.6778 43.0638 53.8581 41.4683C53.8125 41.3807 53.756 41.2995 53.6899 41.2271L33.4693 19.3633C33.4671 19.3611 33.4649 19.3582 33.462 19.3553L26.7884 12.1394C26.7568 12.1017 26.7252 12.0647 26.6885 12.0314L24.236 9.3795C22.2448 7.22465 18.8441 7.07176 16.6539 9.04041C14.4732 11.0127 14.3189 14.366 16.3094 16.5143L42.2788 44.5948C42.4228 44.7506 42.6108 44.8622 42.8179 44.9151C43.6876 45.1361 45.4019 45.5295 47.2432 45.752L49.0648 47.7192L48.096 49.9494C47.9366 50.316 47.9939 50.7392 48.2443 51.0515C48.4434 51.2993 53.1471 57.1501 56.359 59.8158C58.7512 61.7997 62.8086 62.125 65.2104 62.125C66.3025 62.125 67.0525 62.0576 67.1457 62.0489C67.5607 62.0098 67.9184 61.7424 68.0683 61.3577C68.2181 60.9729 68.1373 60.5396 67.856 60.2361ZM23.7322 21.3138L26.3168 14.8536L31.4157 20.3668L28.8332 26.8299L23.7322 21.3138ZM18.1412 10.6453C19.4303 9.48602 21.4347 9.57441 22.6091 10.8446L24.6635 13.0654L22.0788 19.5256L17.9392 15.0492C16.7655 13.7834 16.8573 11.8061 18.1412 10.6453ZM30.4873 28.6182L33.0698 22.155L51.9543 42.5755C52.1511 42.9965 52.154 43.2377 52.1034 43.3C52.0233 43.3979 51.883 43.479 51.6965 43.5442C51.6135 43.5602 51.5349 43.5797 51.4563 43.6145C50.6953 43.7949 49.3975 43.7935 47.8514 43.6276C47.8345 43.6261 47.8191 43.6225 47.8029 43.6218C46.5396 43.4834 45.1161 43.237 43.6854 42.8885L30.4873 28.6182ZM57.7795 58.1536C55.2639 56.0655 51.601 51.6883 50.3847 50.2066L51.3733 47.9322C51.5429 47.5402 51.4658 47.0859 51.1742 46.7707L50.3685 45.9012C50.7659 45.881 51.1478 45.8411 51.5092 45.7788L64.6081 59.9469C62.3627 59.8875 59.3917 59.4912 57.7795 58.1536Z" fill="#F4F4F4"/>
<path d="M49.23 62.6249H4.82561C4.21746 62.6249 3.72388 63.1111 3.72388 63.7118C3.72388 64.3125 4.21746 64.7986 4.82561 64.7986H49.23C49.8382 64.7986 50.3318 64.3125 50.3318 63.7118C50.3318 63.1111 49.8382 62.6249 49.23 62.6249Z" fill="#F4F4F4"/>
</svg>
