<svg width="100" height="45" viewBox="0 0 100 45" fill="none" xmlns="http://www.w3.org/2000/svg">
<path d="M74.6897 16.0978L74.25 16.2976V16.7806V29.4083V30.3071L75.1343 30.1462L94.4156 26.6382C93.6742 28.1757 92.8482 29.6669 91.9572 31.1162L74.8658 34.226L74.25 34.338V34.9639V38.75C74.25 40.0245 73.7437 41.2468 72.8425 42.148C71.9413 43.0493 70.719 43.5556 69.4445 43.5556H30.5556C29.2811 43.5556 28.0587 43.0493 27.1575 42.148C26.2563 41.2468 25.75 40.0245 25.75 38.75V34.9639V34.338L25.1342 34.226L8.04518 31.1189C7.1523 29.6696 6.32585 28.1784 5.58431 26.6407L24.8659 30.1462L25.75 30.307V29.4083V16.7806V16.2976L25.3104 16.0978L0.752659 4.93494C0.766741 3.65006 0.836443 2.37836 0.949122 1.11638L24.6897 11.9078L25.75 12.3898V11.225V8.19445C25.75 6.91993 26.2563 5.69762 27.1575 4.79641C28.0587 3.89519 29.2811 3.38889 30.5556 3.38889H69.4445C70.719 3.38889 71.9413 3.89519 72.8425 4.7964C73.7437 5.69762 74.25 6.91993 74.25 8.19445V11.225V12.3897L75.3103 11.9078L99.0524 1.11691C99.1638 2.37893 99.2333 3.65043 99.2474 4.93494L74.6897 16.0978Z" stroke="white" stroke-width="1.5"/>
</svg>
