<svg width="73" height="73" viewBox="0 0 73 73" fill="none" xmlns="http://www.w3.org/2000/svg">
<path d="M27.8061 30.3527V22.5394C27.8061 21.9364 27.3175 21.4471 26.7139 21.4471H24.265C24.2912 21.3539 24.3094 21.257 24.3094 21.1558V12.1599C24.3094 12.0579 24.2912 11.9611 24.265 11.8679H31.5577C32.1614 11.8679 32.65 11.3786 32.65 10.7756C32.65 10.1727 32.1614 9.68335 31.5577 9.68335H17.0247C16.421 9.68335 15.9324 10.1727 15.9324 10.7756V21.1565C15.9324 21.2585 15.9506 21.3546 15.9768 21.4478H13.5644C12.9607 21.4478 12.4721 21.9372 12.4721 22.5401V30.3498C6.56003 33.8604 2.78369 41.1116 2.78369 49.139C2.78369 56.0567 5.55223 62.3067 10.3793 66.2884C10.5752 66.45 10.8206 66.5381 11.0747 66.5381C11.0747 66.5381 29.0426 66.5381 29.4096 66.5389C29.4125 66.5389 29.4154 66.5389 29.419 66.5389C29.6761 66.5389 29.9273 66.4486 30.1261 66.2789C34.6219 62.4589 37.3445 56.2759 37.4814 49.6604C37.4865 49.6174 37.4946 49.5752 37.4946 49.5301C37.4946 49.5031 37.4887 49.4784 37.4865 49.4521C37.488 49.348 37.4946 49.2446 37.4946 49.1398C37.4938 41.1407 33.7102 33.8633 27.8061 30.3527ZM18.1177 21.1558V11.8672H22.17C22.1438 11.9611 22.1256 12.0572 22.1256 12.1592V21.1551C22.1256 21.257 22.1438 21.3532 22.17 21.4464H18.074C18.0988 21.3539 18.1177 21.2578 18.1177 21.1558ZM14.6574 23.6316H25.6216V29.7512H14.6574V23.6316ZM28.9872 64.3733C28.4535 64.3543 27.6831 64.3543 26.5522 64.3536H11.4738C7.67196 61.0702 5.37237 56.1434 5.02139 50.6223H35.2561C34.9044 56.0961 32.6259 61.1336 28.9872 64.3733ZM4.99008 48.4371C5.20634 41.2266 8.72127 34.8325 14.0974 31.9365H26.1939C31.5577 34.8339 35.0719 41.2543 35.2889 48.4371H4.99008Z" fill="#F4F4F4"/>
<path d="M69.718 9.32872C69.5119 9.11318 69.2265 8.99084 68.9279 8.99084H41.9387C41.6431 8.99084 41.3605 9.11027 41.1552 9.32217C40.9491 9.53407 40.8384 9.82097 40.8472 10.1159L42.0203 49.5184C42.0261 52.9583 43.7548 55.997 46.3828 57.8218V64.7541C46.3828 65.357 46.8714 65.8464 47.475 65.8464H63.3916C63.9953 65.8464 64.4839 65.357 64.4839 64.7541V57.3369C66.7463 55.4858 68.1947 52.678 68.1939 49.5526L70.0195 10.1334C70.0333 9.83553 69.9241 9.54499 69.718 9.32872ZM62.2993 63.6618H48.5673V58.9629C49.6705 59.3794 50.8589 59.6183 52.1055 59.6183H58.1101C59.6058 59.6183 61.0221 59.2811 62.3001 58.6935L62.2993 63.6618ZM66.0101 49.5024C66.0101 53.8758 62.4661 57.4337 58.1094 57.4337H52.1048C47.7481 57.4337 44.2041 53.8758 44.2041 49.5024C44.2041 49.4915 44.2041 49.4813 44.2041 49.4696L43.3113 19.4795H64.0841C64.6878 19.4795 65.1764 18.9902 65.1764 18.3873C65.1764 17.7843 64.6878 17.295 64.0841 17.295H43.2465L43.0645 11.1754H67.7847L66.0101 49.5024Z" fill="#F4F4F4"/>
<path d="M20.7521 45.1441V41.1457H24.7553C25.1594 41.1457 25.4864 40.8186 25.4864 40.4145C25.4864 40.0103 25.1594 39.6832 24.7553 39.6832H20.7521V35.6839C20.7521 35.2797 20.425 34.9526 20.0209 34.9526C19.6168 34.9526 19.2898 35.2797 19.2898 35.6839V39.6832H15.2949C14.8908 39.6832 14.5637 40.0103 14.5637 40.4145C14.5637 40.8186 14.8908 41.1457 15.2949 41.1457H19.2898V45.1441C19.2898 45.5482 19.6168 45.8753 20.0209 45.8753C20.425 45.8753 20.7521 45.5482 20.7521 45.1441Z" fill="#F4F4F4"/>
<path d="M55.7045 42.2314V38.233H59.7077C60.1117 38.233 60.4388 37.9059 60.4388 37.5018C60.4388 37.0976 60.1117 36.7705 59.7077 36.7705H55.7045V32.7712C55.7045 32.367 55.3774 32.0399 54.9733 32.0399C54.5692 32.0399 54.2422 32.367 54.2422 32.7712V36.7705H50.2472C49.8432 36.7705 49.5161 37.0976 49.5161 37.5018C49.5161 37.9059 49.8432 38.233 50.2472 38.233H54.2422V42.2314C54.2422 42.6355 54.5692 42.9626 54.9733 42.9626C55.3774 42.9626 55.7045 42.6355 55.7045 42.2314Z" fill="#F4F4F4"/>
</svg>
