<svg width="74" height="74" viewBox="0 0 74 74" fill="none" xmlns="http://www.w3.org/2000/svg">
<path d="M27.7726 19.9782V7.0592C27.7726 6.4503 27.2798 5.95746 26.6709 5.95746H5.50872C4.89983 5.95746 4.40698 6.4503 4.40698 7.0592C4.40698 7.66809 4.89983 8.16093 5.50872 8.16093H13.2495V19.9782C8.56641 20.5121 4.90423 24.7891 4.90423 29.9717V57.4409C4.90423 62.9826 9.0923 67.4917 14.2389 67.4917H26.7796C31.9284 67.4917 36.1172 62.9826 36.1172 57.4409V29.9717C36.1179 24.7898 32.4565 20.5136 27.7726 19.9782ZM25.5691 8.16093V19.9194H15.453V8.16093H25.5691ZM7.10771 33.567H24.6819V54.4713H7.10771V33.567ZM33.9144 57.4409C33.9144 61.7678 30.7143 65.2882 26.7803 65.2882H14.2389C10.3064 65.2882 7.10771 61.7678 7.10771 57.4409V56.6748H25.7836C26.3925 56.6748 26.8854 56.1812 26.8854 55.5731V32.4653C26.8854 31.8564 26.3925 31.3635 25.7836 31.3635H7.10771V29.9717C7.10771 25.644 10.3064 22.1236 14.2389 22.1236H14.3439C14.3461 22.1236 14.3483 22.1243 14.3513 22.1243C14.3542 22.1243 14.3557 22.1236 14.3586 22.1236H26.6643C26.6665 22.1236 26.6687 22.1243 26.6716 22.1243C26.6746 22.1243 26.676 22.1236 26.679 22.1236H26.7811C30.715 22.1236 33.9152 25.644 33.9152 29.9717V57.4409H33.9144Z" fill="#F4F4F4"/>
<path d="M70.232 6.18292C70.0234 5.94789 69.7237 5.81421 69.4094 5.81421H43.9894C43.675 5.81421 43.3753 5.94862 43.1667 6.18292C42.9574 6.41796 42.859 6.73085 42.895 7.04301L48.248 53.0949C48.3126 53.6509 48.7834 54.0695 49.3423 54.0695H49.3798V62.9877C49.3798 65.5511 51.1037 67.6363 53.2219 67.6363H59.8852C62.0028 67.6363 63.7252 65.5511 63.7252 62.9877V54.0695H64.0594C64.619 54.0695 65.0891 53.6509 65.1537 53.0949L66.6683 40.0599C66.6962 39.9916 66.7322 39.9284 66.7461 39.8527C66.7726 39.7088 66.7689 39.5663 66.741 39.4311L70.5038 7.04301C70.5398 6.73085 70.4413 6.41796 70.232 6.18292ZM61.5217 62.9877C61.5217 64.3135 60.7718 65.4329 59.8852 65.4329H53.2219C52.3332 65.4329 51.5833 64.3135 51.5833 62.9877V54.0695H61.5217V62.9877ZM63.0781 51.8661H62.7586C62.7138 51.8602 62.6697 51.8521 62.6234 51.8521C62.5771 51.8521 62.5331 51.8602 62.4883 51.8661H50.3236L45.227 8.01695H68.1725L67.1912 16.4607C60.6733 16.7332 55.4511 22.1052 55.4511 28.6877C55.4511 34.2265 59.1544 39.0272 64.3994 40.4881L63.0781 51.8661ZM64.6587 38.2582C60.5367 36.9522 57.6546 33.1116 57.6546 28.6885C57.6546 23.4075 61.7523 19.074 66.9334 18.6781L64.6587 38.2582Z" fill="#F4F4F4"/>
<path d="M16.5249 48.4734V44.4404H20.5629C20.9704 44.4404 21.3003 44.1104 21.3003 43.7028C21.3003 43.2951 20.9704 42.9652 20.5629 42.9652H16.5249V38.9312C16.5249 38.5235 16.195 38.1936 15.7875 38.1936C15.3799 38.1936 15.05 38.5235 15.05 38.9312V42.9652H11.0204C10.6129 42.9652 10.283 43.2951 10.283 43.7028C10.283 44.1104 10.6129 44.4404 11.0204 44.4404H15.05V48.4734C15.05 48.881 15.3799 49.211 15.7875 49.211C16.195 49.211 16.5249 48.881 16.5249 48.4734Z" fill="#F4F4F4"/>
</svg>
