<svg width="74" height="73" viewBox="0 0 74 73" fill="none" xmlns="http://www.w3.org/2000/svg">
<path d="M63.5694 59.2282H35.5464C35.5317 59.2274 35.5185 59.2238 35.5038 59.2238C25.0527 59.2238 16.5488 50.8355 16.5488 40.525C16.5488 35.5414 18.5782 30.76 22.1463 27.2603C23.348 28.3494 24.8889 28.9602 26.5327 28.979C26.5577 28.979 26.5834 28.979 26.6091 28.979C27.9826 28.979 29.2907 28.5609 30.3939 27.7951L35.899 33.3561C36.1149 33.5742 36.4013 33.6836 36.6871 33.6836C36.9647 33.6836 37.2423 33.5807 37.4568 33.3742L38.5931 32.2801L41.6882 35.4153C41.8917 35.6218 42.1708 35.7399 42.4631 35.7436C42.4682 35.7436 42.4726 35.7436 42.4778 35.7436C42.7657 35.7436 43.0419 35.6327 43.2475 35.4349L47.2013 31.6295C47.4099 31.428 47.5296 31.1527 47.5333 30.8643C47.537 30.5759 47.4246 30.2984 47.2197 30.0919L44.1201 26.9596L45.0434 26.0713C45.252 25.8699 45.3717 25.5953 45.3754 25.3069C45.379 25.0192 45.2667 24.741 45.0617 24.5345L27.7814 7.06813C27.7476 7.03408 27.7094 7.00655 27.6719 6.97756C27.6425 6.93844 27.6278 6.89279 27.5919 6.85656C25.1629 4.42782 21.1504 4.4126 18.6428 6.82613C16.1727 9.21647 16.0721 13.1103 18.3938 15.5579C18.446 15.681 18.5172 15.7977 18.6178 15.8991L21.2877 18.596C20.4673 19.6893 20.009 21.0001 19.9935 22.384C19.9803 23.5049 20.2565 24.5838 20.7824 25.5431C16.6861 29.4645 14.3475 34.877 14.3475 40.525C14.3475 48.7133 19.154 55.8111 26.1273 59.2282H11.6901C11.082 59.2282 10.5884 59.7144 10.5884 60.315V66.3449C10.5884 66.9455 11.082 67.4317 11.6901 67.4317H63.5709C64.1791 67.4317 64.6726 66.9455 64.6726 66.3449V60.315C64.6712 59.7151 64.1776 59.2282 63.5694 59.2282ZM44.873 30.8324L42.4976 33.1192L40.17 30.7622L42.5424 28.4776L44.873 30.8324ZM20.183 8.3796C21.6168 7.00075 23.7989 6.82758 25.3803 7.86153L19.5411 13.49C18.529 11.9111 18.7537 9.76279 20.183 8.3796ZM26.9734 9.36428L42.715 25.2743L36.7054 31.06L20.9631 15.1579L26.9734 9.36428ZM28.8258 26.2119C28.1501 26.6053 27.3789 26.8154 26.557 26.8053C25.3788 26.7923 24.2771 26.3271 23.4515 25.4938C22.6274 24.6642 22.1816 23.5687 22.1948 22.4094C22.2044 21.6087 22.4372 20.8458 22.8544 20.1806L28.8258 26.2119ZM62.4677 65.258H12.7904V61.4019H62.4677V65.258Z" fill="#F4F4F4"/>
<path d="M45.3996 50.8189C45.617 51.0471 45.9101 51.163 46.2046 51.163C46.4741 51.163 46.7444 51.0659 46.9567 50.8703L63.2991 35.7906C63.7435 35.3805 63.767 34.6922 63.3513 34.2538C62.9348 33.8155 62.2378 33.793 61.7942 34.2024L45.4517 49.2821C45.0074 49.6929 44.9846 50.3805 45.3996 50.8189Z" fill="#F4F4F4"/>
</svg>
