<svg width="54" height="65" viewBox="0 0 54 65" fill="none" xmlns="http://www.w3.org/2000/svg">
<path d="M53.9852 61.7197C53.9261 61.2608 53.6963 60.883 53.3404 60.6572C52.6804 60.2389 51.9918 59.9135 51.3267 59.5999C50.2677 59.1004 49.2677 58.6297 48.6529 57.886C47.8812 56.9438 46.6114 54.3401 45.9835 52.9773C46.0031 52.9522 46.0206 52.9279 46.0411 52.9021C47.1971 51.4404 46.9892 49.9611 46.6844 49.317C46.5968 49.1311 46.4583 48.9739 46.2876 48.8633C46.2876 48.8633 45.3963 48.287 43.9661 47.3618L30.0172 0.785025C29.9312 0.498015 29.7335 0.258225 29.4695 0.121729C29.2062 -0.0147667 28.8991 -0.037639 28.6176 0.0590148C27.6658 0.386605 24.4902 1.54719 23.5574 2.71589C22.8295 3.64111 22.4874 6.12607 22.3743 7.15089C22.3576 7.30436 22.3729 7.46004 22.4188 7.6076L30.8749 34.65C31.0514 35.2152 31.6386 35.5368 32.2009 35.3856L34.4137 34.7857L37.2021 42.9873C33.2271 40.4175 28.8473 37.588 26.0729 35.798C23.3641 34.0509 19.7786 30.958 16.3112 27.9676C10.9447 23.3393 7.56049 20.4891 5.68168 20.2294C3.97062 19.9992 2.48202 21.8157 1.75194 22.9239C0.743971 24.4534 -0.681181 27.5249 0.368355 29.334C0.369085 29.3355 0.369814 29.337 0.370543 29.3385C1.679 31.5681 10.7127 38.5907 12.4355 39.8804C16.6504 43.0426 24.0176 47.6879 29.2076 50.4547L30.4935 51.1409C34.6683 53.3713 38.0175 55.1465 41.7882 55.9455C42.255 57.2035 43.4621 60.1223 45.2103 61.9056C46.3459 63.061 48.2437 64.181 50.2925 64.9019C50.4828 64.9683 50.7228 65 50.9853 65C51.749 65 52.6986 64.7314 53.1333 64.2592C53.5556 63.804 54.0968 62.5881 53.9852 61.7197ZM36.1503 33.0895C35.9636 32.5391 35.3867 32.2307 34.8324 32.3805L32.6443 32.9737L24.5755 7.16639C24.7433 5.79774 25.0584 4.39589 25.2648 4.09929C25.5448 3.74809 26.8963 3.08848 28.2588 2.5484L41.1311 45.5269C40.8175 45.324 40.4973 45.1174 40.1676 44.9034L36.1503 33.0895ZM30.228 48.4958C25.2071 45.819 17.8108 41.1568 13.7388 38.1015C9.70989 35.0868 3.07935 29.6085 2.25446 28.2118C2.00794 27.7802 2.39449 25.963 3.54176 24.1988C4.46148 22.7844 5.21563 22.4023 5.38629 22.4222C6.72465 22.6066 11.2532 26.5126 14.8919 29.6513C18.4162 32.6911 22.06 35.8342 24.8972 37.6632C28.2865 39.8494 34.0688 43.5864 38.5835 46.5059C38.6462 46.5561 38.7133 46.6011 38.7855 46.6365C40.1406 47.5131 41.3725 48.3092 42.3826 48.9629C42.3958 48.9732 42.4104 48.9806 42.4242 48.9902C43.484 49.6756 44.2979 50.2016 44.7377 50.4864C44.7436 50.7152 44.6786 51.0811 44.3315 51.5194C44.0193 51.9156 43.7349 52.3022 43.4738 52.6571C43.1696 53.071 42.7707 53.6133 42.5329 53.8516C38.9423 53.1522 35.6529 51.394 31.5168 49.182L30.228 48.4958ZM51.5783 62.6766C51.4025 62.7401 51.0998 62.7851 50.9532 62.7902C49.2553 62.1852 47.6537 61.2504 46.7639 60.3459C45.4547 59.0112 44.4555 56.752 43.9726 55.5176C44.1448 55.356 44.3154 55.1627 44.4897 54.9502C45.1651 56.3535 46.184 58.3397 46.9717 59.3011C47.9016 60.4263 49.1736 61.0261 50.4026 61.6053C50.8716 61.8267 51.3208 62.0384 51.7439 62.2738C51.695 62.4206 51.6308 62.577 51.5783 62.6766Z" fill="#F4F4F4"/>
</svg>
