<svg width="73" height="73" viewBox="0 0 73 73" fill="none" xmlns="http://www.w3.org/2000/svg">
<path d="M60.9049 53.7121C58.6348 50.3834 54.6678 48.8908 50.9399 49.5907L42.7755 37.6129C47.1475 33.7467 53.0216 8.51437 53.6875 5.60162C53.8041 5.0908 53.5411 4.56984 53.0607 4.36188C52.5774 4.15321 52.0188 4.31769 51.7268 4.75243L36.145 27.8842L20.435 4.8343C20.1401 4.40101 19.5785 4.24088 19.0996 4.45173C18.6207 4.66258 18.3598 5.18499 18.4794 5.69509C19.1619 8.60349 25.178 33.8068 29.5645 37.6484L21.4704 49.6675C20.2698 49.4465 19.0272 49.4444 17.7939 49.6857C15.2167 50.1907 12.9915 51.6681 11.5308 53.8439C10.0563 56.0227 9.52013 58.6435 10.0215 61.2229C10.5229 63.8045 12.0025 66.0355 14.1871 67.5042C15.8695 68.6374 17.7795 69.1801 19.6713 69.1801C22.8369 69.1801 25.9489 67.6585 27.8473 64.8421C30.0521 61.5678 30.0094 57.4356 28.0936 54.2562C28.9559 52.8274 29.7797 50.971 30.6456 49.0205C32.1853 45.5527 33.9257 41.6401 36.1617 39.5598C38.2173 41.8372 40.078 45.7158 41.6546 49.0089C42.5893 50.9623 43.4798 52.8208 44.3377 54.2127C42.4415 57.4023 42.419 61.5338 44.6369 64.795C44.6369 64.7957 44.6377 64.7957 44.6384 64.7965C46.544 67.5875 49.6415 69.0902 52.7897 69.0902C54.6975 69.0902 56.6234 68.5381 58.3146 67.3861C60.4883 65.9051 61.9548 63.6676 62.4446 61.086C62.9337 58.5029 62.3873 55.8843 60.9049 53.7121ZM50.1559 10.9764C47.5932 21.1138 43.9102 33.3981 41.5459 35.808L37.463 29.8181L50.1559 10.9764ZM26.0438 63.6278C23.681 67.1332 18.9062 68.0628 15.4 65.7C13.698 64.5559 12.5459 62.8184 12.1546 60.8077C11.7641 58.8 12.1822 56.7589 13.3328 55.0583C14.4718 53.3621 16.2042 52.2108 18.2113 51.818C18.7083 51.7202 19.2061 51.6731 19.701 51.6731C20.2444 51.6731 20.7828 51.7333 21.3095 51.8478C21.3103 51.8478 21.3103 51.8485 21.311 51.8492C21.4972 51.9746 21.708 52.0347 21.9167 52.0347C21.9385 52.0347 21.9602 52.0282 21.9819 52.0267C22.6768 52.2463 23.3448 52.5644 23.9658 52.9824C27.472 55.3481 28.4038 60.123 26.0438 63.6278ZM28.6581 48.1387C27.9668 49.6965 27.3039 51.187 26.6489 52.397C26.2069 51.9535 25.7192 51.5442 25.1809 51.1812C24.6882 50.8493 24.1708 50.5725 23.639 50.3378L31.7288 38.3245C32.2106 38.273 32.6548 38.1353 33.0142 38.018C33.2859 37.9296 33.7416 37.7818 33.8677 37.8223C34.08 37.9035 34.2901 38.0122 34.4988 38.1368C32.0302 40.5474 30.2434 44.5673 28.6581 48.1387ZM34.6488 35.7936C33.8177 35.4711 33.0004 35.737 32.3432 35.9508C31.8962 36.0964 31.6136 36.1718 31.4056 36.1747C31.3383 36.1587 31.2701 36.1493 31.202 36.1471C31.1491 36.1305 31.0999 36.108 31.0535 36.0747C28.7016 34.3901 24.7621 21.5645 22.0421 11.0518L48.7728 50.2704C48.2438 50.5059 47.7265 50.7826 47.2323 51.1188C46.6932 51.4869 46.2056 51.9014 45.7644 52.3499C45.0883 51.1457 44.3667 49.6422 43.6146 48.0706C41.1829 42.9928 38.4274 37.2369 34.6488 35.7936ZM60.3078 60.6809C59.9267 62.6923 58.7834 64.4364 57.0893 65.5899C53.5976 67.9672 48.8169 67.0629 46.4324 63.572C44.0587 60.0795 44.9666 55.2981 48.4561 52.9158C49.0843 52.4883 49.7545 52.1709 50.4443 51.9514C50.6624 51.9622 50.8849 51.9086 51.0812 51.7818C54.0606 51.1123 57.2857 52.2637 59.1087 54.9366C60.2636 56.6292 60.6897 58.6695 60.3078 60.6809Z" fill="#F4F4F4"/>
</svg>
