<svg width="73" height="72" viewBox="0 0 73 72" fill="none" xmlns="http://www.w3.org/2000/svg">
<path d="M62.0501 13.824C62.4881 13.392 62.4881 12.744 62.0501 12.312L61.9771 12.24L55.6261 7.41601C55.4071 7.27201 55.1881 7.20001 54.9691 7.20001H31.0251C30.4411 7.20001 29.9301 7.70401 29.9301 8.28001V16.2C29.9301 16.776 30.4411 17.28 31.0251 17.28H37.6681L32.2661 24.984C31.9011 25.488 32.0471 26.136 32.5581 26.496C33.0691 26.856 33.7261 26.712 34.0911 26.208L40.2961 17.352L45.2601 19.656V24.48H42.8511C42.4861 24.48 42.1211 24.624 41.9751 24.984L27.2291 46.584C27.0831 46.728 27.0101 46.944 27.0831 47.16V63.72C27.0831 64.296 27.5941 64.8 28.1781 64.8H58.1081C58.6921 64.8 59.2031 64.296 59.2031 63.72V25.56C59.2031 24.984 58.6921 24.48 58.1081 24.48H55.4801V20.376L62.0501 13.824ZM29.2001 62.64V48.96H56.9401V62.64H29.2001ZM56.9401 46.8H29.7111L43.4351 26.64H56.9401V46.8ZM47.4501 24.48V18.936C47.4501 18.504 47.2311 18.144 46.7931 18L40.9531 15.264C40.8071 15.192 40.6611 15.192 40.5151 15.192H32.1201V9.36001H54.5311L59.5681 13.176L53.5821 19.152C53.3631 19.368 53.2901 19.656 53.2901 19.944V24.48H47.4501Z" fill="#F4F4F4"/>
<path d="M22.9949 15.84C24.0028 15.84 24.8199 15.0341 24.8199 14.04C24.8199 13.0459 24.0028 12.24 22.9949 12.24C21.987 12.24 21.1699 13.0459 21.1699 14.04C21.1699 15.0341 21.987 15.84 22.9949 15.84Z" fill="#F4F4F4"/>
<path d="M16.4249 20.88C17.4328 20.88 18.2499 20.0741 18.2499 19.08C18.2499 18.0859 17.4328 17.28 16.4249 17.28C15.4169 17.28 14.5999 18.0859 14.5999 19.08C14.5999 20.0741 15.4169 20.88 16.4249 20.88Z" fill="#F4F4F4"/>
<path d="M16.4249 11.52C17.4328 11.52 18.2499 10.7141 18.2499 9.71998C18.2499 8.72587 17.4328 7.91998 16.4249 7.91998C15.4169 7.91998 14.5999 8.72587 14.5999 9.71998C14.5999 10.7141 15.4169 11.52 16.4249 11.52Z" fill="#F4F4F4"/>
<path d="M47.8139 43.197V39.2435H51.8271C52.2322 39.2435 52.5601 38.9201 52.5601 38.5205C52.5601 38.1209 52.2322 37.7975 51.8271 37.7975H47.8139V33.843C47.8139 33.4434 47.486 33.12 47.081 33.12C46.6759 33.12 46.348 33.4434 46.348 33.843V37.7975H42.3431C41.938 37.7975 41.6101 38.1209 41.6101 38.5205C41.6101 38.9201 41.938 39.2435 42.3431 39.2435H46.348V43.197C46.348 43.5966 46.6759 43.92 47.081 43.92C47.486 43.92 47.8139 43.5966 47.8139 43.197Z" fill="#F4F4F4"/>
</svg>
