<svg width="73" height="74" viewBox="0 0 73 74" fill="none" xmlns="http://www.w3.org/2000/svg">
<path d="M58.8217 15.273C58.8043 15.2554 58.7848 15.2377 58.7659 15.2208L54.5649 11.5212V8.3247C54.5649 7.71581 54.078 7.22296 53.4781 7.22296C52.8781 7.22296 52.3912 7.71581 52.3912 8.3247V15.9311C52.3912 16.54 52.8781 17.0328 53.4781 17.0328C54.078 17.0328 54.5649 16.54 54.5649 15.9311V14.4393L57.311 16.858C60.3114 19.9216 60.873 24.637 58.6768 28.3344L53.0375 37.747L52.7803 37.3283C52.5818 37.0051 52.2325 36.809 51.8579 36.809C51.855 36.809 51.8521 36.809 51.8492 36.809C51.4717 36.8119 51.1218 37.0139 50.9269 37.343C50.1429 38.6629 48.3083 39.8212 46.9997 39.8212C45.6245 39.8212 43.5457 38.5938 42.8038 37.3437C42.6089 37.0147 42.2589 36.8127 41.8807 36.8097C41.5111 36.7943 41.1496 37.0036 40.9496 37.3298L40.7663 37.6294L35.3197 28.3418C33.117 24.6304 33.6909 19.8973 36.6739 16.8712L39.2599 14.5025V16.1705C39.2599 16.7794 39.7468 17.2723 40.3468 17.2723C40.9467 17.2723 41.4336 16.7794 41.4336 16.1705V8.56194C41.4336 7.95305 40.9467 7.4602 40.3468 7.4602C39.7468 7.4602 39.2599 7.95305 39.2599 8.56194V11.5308L35.1763 15.273C31.4455 19.0549 30.7383 24.8956 33.454 29.4714L39.4737 39.736L38.9288 40.6247C38.7136 40.9765 38.7107 41.4201 38.9208 41.7749C40.3011 44.0974 43.2153 45.9755 45.9136 46.3927V51.562C45.9136 51.6112 45.9172 51.6597 45.9237 51.7074C45.8339 60.1357 39.5729 66.9613 31.8904 66.9613C24.152 66.9613 17.857 60.0358 17.857 51.5231C17.857 51.4746 17.8541 51.4261 17.8475 51.3791V29.7645C20.1712 29.1872 21.9029 27.063 21.9029 24.5312C21.9029 21.5573 19.5177 19.1379 16.5853 19.1379C13.6501 19.1379 11.262 21.5573 11.262 24.5312C11.262 27.1894 13.1719 29.3995 15.6738 29.8394V51.7206C15.6738 51.7779 15.6782 51.8345 15.6869 51.8889C15.8666 61.4483 23.0666 69.1641 31.8904 69.1641C40.8271 69.1641 48.0982 61.2499 48.0982 51.5223C48.0982 51.4702 48.0945 51.4195 48.0873 51.3696V46.3912C50.6885 45.9799 53.3897 44.1649 54.8127 41.7742C55.0243 41.4194 55.0207 40.9743 54.8047 40.6225L54.3251 39.8417L60.5368 29.4729C63.2575 24.8934 62.5518 19.0534 58.8217 15.273ZM13.4349 24.5312C13.4349 22.7721 14.8478 21.3414 16.5846 21.3414C18.3185 21.3414 19.7285 22.7721 19.7285 24.5312C19.7285 26.2904 18.3185 27.7211 16.5846 27.7211C14.8478 27.7211 13.4349 26.2904 13.4349 24.5312ZM47.0019 44.2773C47.0012 44.2773 47.0012 44.2773 47.0004 44.2773C46.9997 44.2773 46.999 44.2773 46.9983 44.2773C45.0043 44.2766 42.4763 42.9046 41.1496 41.177L42.0046 39.7837C43.3682 41.0823 45.3673 42.0239 47.0004 42.0239C48.7148 42.0239 50.5073 41.0279 51.7398 39.8013L52.5876 41.1822C51.2652 42.9552 48.93 44.2758 47.0019 44.2773Z" fill="#F4F4F4"/>
</svg>
