<svg width="74" height="74" viewBox="0 0 74 74" fill="none" xmlns="http://www.w3.org/2000/svg">
<path d="M54.3275 37.1387C54.3275 27.3673 46.3777 19.4174 36.6057 19.4174C26.8322 19.4174 18.8809 27.3673 18.8809 37.1387C18.8809 46.9107 26.8322 54.8607 36.6057 54.8607C46.3777 54.8607 54.3275 46.9107 54.3275 37.1387ZM21.3534 37.1387C21.3534 28.7308 28.1957 21.8899 36.6057 21.8899C45.0142 21.8899 51.855 28.73 51.855 37.1387C51.855 45.5473 45.0142 52.3882 36.6057 52.3882C28.1957 52.3882 21.3534 45.5473 21.3534 37.1387Z" fill="#F4F4F4"/>
<path d="M36.6058 16.7855C37.2886 16.7855 37.8416 16.2324 37.8416 15.5496V6.29003C37.8416 5.60719 37.2886 5.05414 36.6058 5.05414C35.9229 5.05414 35.3699 5.60719 35.3699 6.29003V15.5496C35.3699 16.2324 35.9229 16.7855 36.6058 16.7855Z" fill="#F4F4F4"/>
<path d="M44.3721 18.2161C44.5182 18.2721 44.6678 18.2987 44.8153 18.2987C45.3123 18.2987 45.7806 17.9971 45.9694 17.506L49.2928 8.86212C49.5376 8.22501 49.2198 7.50972 48.5827 7.26417C47.9448 7.01787 47.2303 7.33717 46.9847 7.97429L43.6613 16.6181C43.4172 17.256 43.735 17.9713 44.3721 18.2161Z" fill="#F4F4F4"/>
<path d="M52.7171 22.7939C53.0608 22.7939 53.4029 22.6516 53.647 22.3721L59.7482 15.4125C60.198 14.8993 60.1472 14.1183 59.6332 13.6678C59.1207 13.218 58.3391 13.2681 57.8885 13.7828L51.7873 20.7424C51.3375 21.2557 51.3884 22.0366 51.9023 22.4871C52.1368 22.6929 52.4273 22.7939 52.7171 22.7939Z" fill="#F4F4F4"/>
<path d="M55.9889 28.6216C56.1659 29.1326 56.6445 29.4534 57.1569 29.4534C57.2911 29.4534 57.4276 29.4313 57.561 29.3855L66.3191 26.3526C66.9643 26.1292 67.3065 25.4249 67.083 24.7804C66.8596 24.1352 66.1539 23.7931 65.5109 24.0165L56.7528 27.0487C56.1069 27.2729 55.7647 27.9771 55.9889 28.6216Z" fill="#F4F4F4"/>
<path d="M68.0838 36.6379H58.8184C58.1356 36.6379 57.5825 37.191 57.5825 37.8738C57.5825 38.5567 58.1356 39.1097 58.8184 39.1097H68.0838C68.7666 39.1097 69.3204 38.5567 69.3204 37.8738C69.3204 37.191 68.7666 36.6379 68.0838 36.6379Z" fill="#F4F4F4"/>
<path d="M36.6058 57.6687C35.9229 57.6687 35.3699 58.2218 35.3699 58.9046V68.1649C35.3699 68.8477 35.9229 69.4008 36.6058 69.4008C37.2886 69.4008 37.8416 68.8477 37.8416 68.1649V58.9046C37.8416 58.2225 37.2886 57.6687 36.6058 57.6687Z" fill="#F4F4F4"/>
<path d="M45.97 56.9482C45.7252 56.3111 45.0099 55.9918 44.3721 56.2381C43.7349 56.4837 43.4171 57.1982 43.6619 57.8361L46.9854 66.4799C47.1742 66.9718 47.6431 67.2726 48.1394 67.2726C48.2869 67.2726 48.4366 67.2461 48.5826 67.19C49.2197 66.9445 49.5375 66.2299 49.2927 65.5921L45.97 56.9482Z" fill="#F4F4F4"/>
<path d="M53.647 52.0821C53.1964 51.5681 52.4155 51.518 51.9023 51.967C51.3891 52.4169 51.3375 53.1978 51.7873 53.7117L57.8885 60.6729C58.1333 60.9516 58.4747 61.0946 58.8184 61.0946C59.1082 61.0946 59.3987 60.9936 59.6324 60.7879C60.1457 60.3381 60.1973 59.5572 59.7475 59.0432L53.647 52.0821Z" fill="#F4F4F4"/>
<path d="M66.3198 48.1024L57.5617 45.068C56.9172 44.8445 56.213 45.186 55.9889 45.8312C55.7654 46.4764 56.1068 47.1806 56.7521 47.4041L65.5101 50.4385C65.6443 50.4849 65.7808 50.5071 65.915 50.5071C66.4275 50.5071 66.906 50.1863 67.083 49.6753C67.3064 49.03 66.965 48.3258 66.3198 48.1024Z" fill="#F4F4F4"/>
<path d="M28.1404 17.5067C28.3292 17.9978 28.7982 18.2994 29.2945 18.2994C29.4419 18.2994 29.5916 18.2728 29.7384 18.2168C30.3755 17.9712 30.6933 17.256 30.4485 16.6188L27.1243 7.97646C26.8795 7.34008 26.1657 7.02004 25.5264 7.26634C24.8892 7.51189 24.5714 8.22717 24.8162 8.86429L28.1404 17.5067Z" fill="#F4F4F4"/>
<path d="M20.4635 22.3735C20.7083 22.6523 21.0497 22.7953 21.3933 22.7953C21.6831 22.7953 21.9737 22.6943 22.2074 22.4886C22.7206 22.0387 22.7723 21.2578 22.3224 20.7439L16.2205 13.7828C15.7699 13.2688 14.989 13.2187 14.4758 13.6677C13.9626 14.1175 13.911 14.8985 14.3608 15.4124L20.4635 22.3735Z" fill="#F4F4F4"/>
<path d="M7.79045 26.3548L16.5485 29.3862C16.6827 29.4319 16.8191 29.4541 16.9526 29.4541C17.4651 29.4541 17.9437 29.1333 18.1206 28.6223C18.3441 27.977 18.0019 27.2728 17.3567 27.0494L8.59864 24.0179C7.95342 23.796 7.2492 24.1374 7.02577 24.7819C6.80308 25.4271 7.14523 26.1306 7.79045 26.3548Z" fill="#F4F4F4"/>
<path d="M16.5272 37.876C16.5272 37.1932 15.9734 36.6401 15.2906 36.6401H6.02518C5.34235 36.6401 4.78931 37.1932 4.78931 37.876C4.78931 38.5589 5.34235 39.1119 6.02518 39.1119H15.2906C15.9734 39.1119 16.5272 38.5581 16.5272 37.876Z" fill="#F4F4F4"/>
<path d="M29.7376 56.2404C29.1013 55.9948 28.3852 56.3134 28.1397 56.9505L24.8155 65.5951C24.5707 66.2322 24.8885 66.9475 25.5256 67.193C25.6716 67.2491 25.8213 67.2756 25.9688 67.2756C26.4658 67.2756 26.934 66.974 27.1228 66.4829L30.447 57.8383C30.6933 57.2012 30.3755 56.4859 29.7376 56.2404Z" fill="#F4F4F4"/>
<path d="M20.4635 52.085L14.3616 59.0439C13.9118 59.5571 13.9626 60.338 14.4759 60.7886C14.7104 60.9943 15.0009 61.0954 15.2907 61.0954C15.6343 61.0954 15.9765 60.953 16.2206 60.6743L22.3225 53.7154C22.7723 53.2022 22.7214 52.4213 22.2082 51.9707C21.695 51.5209 20.9141 51.5703 20.4635 52.085Z" fill="#F4F4F4"/>
<path d="M18.1215 45.8341C17.8981 45.1889 17.1953 44.846 16.5486 45.0701L7.79057 48.1016C7.14535 48.325 6.8032 49.0293 7.02663 49.6745C7.2036 50.1855 7.68291 50.5063 8.19466 50.5063C8.32887 50.5063 8.46529 50.4842 8.59876 50.4384L17.3568 47.407C18.0028 47.1835 18.3449 46.4793 18.1215 45.8341Z" fill="#F4F4F4"/>
</svg>
