<svg width="73" height="74" viewBox="0 0 73 74" fill="none" xmlns="http://www.w3.org/2000/svg">
<path d="M67.7122 4.89471C67.2876 4.46503 66.6 4.46503 66.1754 4.89471L53.0593 18.195L51.4246 16.5387C51.221 16.3323 50.9443 16.2163 50.6559 16.2163C50.3675 16.2163 50.0914 16.3323 49.8871 16.5394L45.5296 20.9597L42.2125 17.5964C42.0089 17.39 41.7321 17.2739 41.4438 17.2739C41.1554 17.2739 40.8793 17.39 40.675 17.5964L35.9791 22.3567C35.9769 22.3589 35.9747 22.3589 35.9726 22.3611C35.9704 22.3633 35.9704 22.3655 35.9682 22.3677L29.7855 28.6359C29.7819 28.6396 29.7775 28.6403 29.7739 28.6433C29.7703 28.6462 29.7695 28.6513 29.7667 28.655L23.5926 34.9137C23.5883 34.9181 23.5825 34.9188 23.5789 34.9232C23.5752 34.9276 23.5738 34.9328 23.5694 34.9372L17.399 41.1922C17.394 41.1973 17.3874 41.198 17.3824 41.2032C17.3773 41.2083 17.3759 41.2149 17.3715 41.2201L12.4698 46.1889C12.2662 46.3953 12.1517 46.6759 12.1517 46.9683C12.1517 47.2598 12.2662 47.5404 12.4698 47.7476L15.7876 51.1101L9.91717 57.0595L6.59866 53.6948C6.17406 53.2644 5.48645 53.2644 5.06185 53.6948C4.63726 54.1252 4.63726 54.8222 5.06185 55.2527L13.9465 64.2598C13.9479 64.2613 13.9487 64.2635 13.9501 64.2657C13.9516 64.2679 13.9537 64.2679 13.9559 64.2694L18.1823 68.5544C18.3946 68.7696 18.6728 68.8769 18.9511 68.8769C19.2293 68.8769 19.5075 68.7696 19.7198 68.5544C20.1444 68.124 20.1444 67.427 19.7198 66.9966L16.2557 63.4864L22.1276 57.5362L25.4475 60.9017C25.6598 61.1169 25.938 61.2241 26.2163 61.2241C26.4945 61.2241 26.7727 61.1169 26.985 60.9017L55.1873 32.3091C55.6119 31.8787 55.6119 31.1817 55.1873 30.7513L51.871 27.3895L56.2285 22.9641C56.6524 22.5337 56.6517 21.8367 56.2278 21.4062L54.5961 19.7536L67.7122 6.45258C68.1368 6.02217 68.1368 5.32439 67.7122 4.89471ZM14.7189 61.9278L11.4532 58.6174L17.3237 52.6672L20.5893 55.9776L14.7189 61.9278ZM26.2163 58.5638L18.0997 50.3374C18.0975 50.3352 18.0968 50.3315 18.0946 50.3293C18.0924 50.3271 18.0888 50.3264 18.0866 50.3242L14.7754 46.9683L18.154 43.5433L22.2478 47.6917C22.4601 47.9069 22.7384 48.0142 23.0166 48.0142C23.2948 48.0142 23.5731 47.9069 23.7854 47.6917C24.2092 47.2613 24.2092 46.5635 23.7854 46.1339L19.6916 41.9854L24.3505 37.2626L28.4414 41.4096C28.6537 41.6248 28.9319 41.732 29.2102 41.732C29.4884 41.732 29.7666 41.6248 29.9789 41.4096C30.4035 40.9792 30.4035 40.2814 29.9789 39.8517L25.8881 35.7047L30.547 30.9819L34.6423 35.1296C34.8546 35.3448 35.1321 35.452 35.4103 35.452C35.6885 35.452 35.9668 35.3448 36.1791 35.1289C36.6029 34.6985 36.6029 34.0007 36.1783 33.571L32.0838 29.424L36.7442 24.6997L40.8358 28.8482C41.0474 29.0634 41.3264 29.1706 41.6046 29.1706C41.8828 29.1706 42.1611 29.0634 42.3734 28.8482C42.798 28.4185 42.798 27.7207 42.3734 27.2903L38.2817 23.1419L41.4459 19.9336L44.7579 23.2917C44.7601 23.2939 44.7601 23.2961 44.7623 23.2976L49.5676 28.168C49.5683 28.1688 49.569 28.1695 49.5698 28.1702L52.8832 31.5298L26.2163 58.5638ZM50.3342 25.8301L47.0671 22.5175L50.6566 18.8759L52.2862 20.527C52.2876 20.5285 52.2883 20.5314 52.2898 20.5329C52.2912 20.5344 52.2941 20.5351 52.2956 20.5366L53.9229 22.1855L50.3342 25.8301Z" fill="#F4F4F4"/>
</svg>
