<svg width="50" height="47" viewBox="0 0 50 47" fill="none" xmlns="http://www.w3.org/2000/svg">
<path fill-rule="evenodd" clip-rule="evenodd" d="M24.9997 8.58761L22.759 6.28448C17.4997 0.878231 7.85592 2.74386 4.37467 9.54073C2.7403 12.7376 2.37155 17.3532 5.35592 23.2439C8.23092 28.9157 14.2122 35.7095 24.9997 43.1095C35.7872 35.7095 41.7653 28.9157 44.6434 23.2439C47.6278 17.3501 47.2622 12.7376 45.6247 9.54073C42.1434 2.74386 32.4997 0.875106 27.2403 6.28136L24.9997 8.58761ZM24.9997 46.8751C-22.916 15.2126 10.2465 -9.49989 24.4497 3.57198C24.6372 3.74386 24.8215 3.92198 24.9997 4.10636C25.176 3.92215 25.3595 3.74493 25.5497 3.57511C39.7497 -9.50614 72.9153 15.2095 24.9997 46.8751Z" fill="#F4F4F4"/>
</svg>

