<svg width="136" height="136" viewBox="0 0 136 136" fill="none" xmlns="http://www.w3.org/2000/svg">
<path d="M83.6847 82.4741L91.5986 81.1319L97.9984 97.2235L82.0956 90.2039L83.6847 82.4741Z" stroke="#F4F4F4"/>
<path d="M83.6847 55.7495L91.5986 57.0916L97.9984 41L82.0956 48.0196L83.6847 55.7495Z" stroke="#F4F4F4"/>
<path d="M54.5388 82.4741L46.6249 81.1319L40.2251 97.2235L56.1279 90.2039L54.5388 82.4741Z" stroke="#F4F4F4"/>
<path d="M54.5388 82.4741L46.6249 81.1319L40.2251 97.2235L56.1279 90.2039L54.5388 82.4741Z" stroke="#F4F4F4"/>
<path d="M54.5388 55.7495L46.6249 57.0916L40.2251 41L56.1279 48.0196L54.5388 55.7495Z" stroke="#F4F4F4"/>
<path d="M57.5434 57.9885L1 68.7701L57.5434 80.3218L69.1618 135L80.7803 80.3218L135 68.7701L80.7803 57.9885L69.1618 1L57.5434 57.9885Z" stroke="#F4F4F4"/>
</svg>
